<?xml version="1.0" standalone="no"?>
<!DOCTYPE svg PUBLIC "-//W3C//DTD SVG 1.1//EN" "http://www.w3.org/Graphics/SVG/1.1/DTD/svg11.dtd" >
<svg xmlns="http://www.w3.org/2000/svg">
<metadata>Generated by IcoMoon</metadata>
<defs>
<font id="icomoon" horiz-adv-x="1024">
<font-face units-per-em="1024" ascent="960" descent="-64" />
<missing-glyph horiz-adv-x="1024" />
<glyph unicode="&#x20;" horiz-adv-x="512" d="" />
<glyph unicode="&#xe900;" glyph-name="checkbox-disable" d="M398.222 493.511c-25.135 0-45.511-20.376-45.511-45.511s20.376-45.511 45.511-45.511v91.022zM625.778 402.489c25.134 0 45.511 20.376 45.511 45.511s-20.378 45.511-45.511 45.511v-91.022zM170.667 857.6h682.667v91.022h-682.667v-91.022zM921.6 789.333v-682.667h91.022v682.667h-91.022zM853.333 38.4h-682.667v-91.022h682.667v91.022zM102.4 106.667v682.667h-91.022v-682.667h91.022zM170.667 38.4c-37.703 0-68.267 30.566-68.267 68.267h-91.022c0-87.973 71.316-159.289 159.289-159.289v91.022zM921.6 106.667c0-37.7-30.566-68.267-68.267-68.267v-91.022c87.973 0 159.289 71.316 159.289 159.289h-91.022zM853.333 857.6c37.7 0 68.267-30.564 68.267-68.267h91.022c0 87.973-71.316 159.289-159.289 159.289v-91.022zM170.667 948.622c-87.973 0-159.289-71.316-159.289-159.289h91.022c0 37.703 30.564 68.267 68.267 68.267v91.022zM398.222 402.489h227.556v91.022h-227.556v-91.022z" />
<glyph unicode="&#xe901;" glyph-name="x-square" d="M49.41 910.562c35.546 35.546 93.179 35.546 128.725 0l311.091-311.091 311.084 311.084c35.546 35.546 93.178 35.546 128.725 0s35.546-93.179 0-128.725l-311.084-311.083 311.079-311.079c35.546-35.546 35.546-93.179 0-128.725s-93.178-35.546-128.725 0l-311.079 311.078-311.086-311.086c-35.546-35.546-93.179-35.546-128.725 0s-35.546 93.178 0 128.725l311.086 311.087-311.092 311.091c-35.546 35.546-35.546 93.178 0 128.725z" />
<glyph unicode="&#xe902;" glyph-name="edit" d="M170.674 738.141c-9.053 0-17.734-3.596-24.136-9.997s-9.997-15.083-9.997-24.136v-597.333c0-9.056 3.596-17.734 9.997-24.134s15.083-9.997 24.136-9.997h597.332c9.056 0 17.734 3.597 24.134 9.997 6.406 6.4 9.997 15.078 9.997 24.134v227.84c0 28.276 22.925 51.2 51.2 51.2 28.282 0 51.2-22.924 51.2-51.2v-227.84c0-36.211-14.381-70.938-39.987-96.544s-60.333-39.987-96.544-39.987h-597.332c-36.211 0-70.939 14.381-96.543 39.987s-39.99 60.333-39.99 96.544v597.333c0 36.211 14.385 70.939 39.99 96.543s60.333 39.99 96.543 39.99h227.84c28.277 0 51.2-22.923 51.2-51.2s-22.923-51.2-51.2-51.2h-227.84zM731.802 910.879c19.994 19.995 52.416 19.995 72.41 0l170.669-170.666c19.994-19.995 19.994-52.413 0-72.408l-426.669-426.665c-9.602-9.606-22.625-14.995-36.204-14.995h-170.666c-28.277 0-51.2 22.918-51.2 51.2v170.664c0 13.579 5.394 26.602 14.996 36.204l426.665 426.666zM392.541 426.801v-98.259h98.259l375.466 375.467-98.259 98.259-375.466-375.467z" />
<glyph unicode="&#xe903;" glyph-name="milestone" d="M496 960c12.73 0 24.94-5.057 33.941-14.059s14.059-21.211 14.059-33.941v-144h232.576c26.496 0 52.096-9.408 72.32-26.496l132.48-112c12.429-10.514 22.413-23.61 29.261-38.377s10.4-30.849 10.4-47.127c0-16.278-3.552-32.36-10.4-47.127s-16.832-27.863-29.261-38.377l-132.48-112c-20.218-17.104-45.837-26.492-72.32-26.496h-232.576v-336c0-12.73-5.057-24.941-14.059-33.939-9.002-9.005-21.211-14.061-33.941-14.061s-24.94 5.056-33.941 14.061c-9.002 8.998-14.059 21.21-14.059 33.939v336h-272c-29.704 0-58.192 11.8-79.196 32.804s-32.804 49.492-32.804 79.196v224c0 61.824 50.176 112 112 112h272v144c0 12.73 5.057 24.939 14.059 33.941s21.211 14.059 33.941 14.059zM496 416h280.576c3.782 0.022 7.43 1.383 10.304 3.84l132.48 112c1.754 1.502 3.168 3.367 4.134 5.466s1.466 4.383 1.466 6.694c0 2.311-0.499 4.595-1.466 6.694s-2.381 3.964-4.134 5.466l-132.48 112c-2.874 2.457-6.522 3.818-10.304 3.84h-600.576c-4.243 0-8.313-1.686-11.314-4.686s-4.686-7.071-4.686-11.314v-224c0-8.832 7.168-16 16-16h320z" />
<glyph unicode="&#xe904;" glyph-name="paperclip" horiz-adv-x="960" d="M651.872 844.787c-31.709 0-62.12-12.596-84.542-35.018l-392.107-392.107c-38.434-38.434-60.026-90.562-60.026-144.913 0-54.355 21.592-106.483 60.026-144.922 38.434-38.432 90.562-60.026 144.916-60.026s106.482 21.594 144.916 60.026l392.109 392.109c19.994 19.995 52.41 19.995 72.403 0s19.994-52.413 0-72.408l-392.105-392.105c-57.638-57.638-135.811-90.022-217.324-90.022s-159.686 32.384-217.324 90.022c-57.638 57.638-90.018 135.808-90.018 217.325 0 81.509 32.381 159.683 90.018 217.321l392.107 392.107c41.626 41.626 98.083 65.011 156.95 65.011s115.328-23.385 156.954-65.011c41.626-41.626 65.011-98.083 65.011-156.95s-23.386-115.325-65.011-156.951l-392.536-392.109c-0.006-0.006 0.006 0.006 0 0-25.612-25.6-60.363-40-96.577-40-36.223 0-70.963 14.387-96.577 40-25.614 25.619-40.004 60.358-40.004 96.582 0 36.218 14.39 70.961 40.004 96.574l362.261 361.835c20.007 19.983 52.425 19.964 72.408-0.043 19.981-20.006 19.962-52.424-0.045-72.408l-362.217-361.792c-6.41-6.413-10.012-15.104-10.012-24.166 0-9.069 3.601-17.76 10.012-24.173s15.104-10.010 24.17-10.010c9.065 0 17.759 3.597 24.17 10.010l392.534 392.107c22.406 22.42 35.021 52.843 35.021 84.543 0 31.709-12.602 62.12-35.021 84.543-22.426 22.422-52.832 35.018-84.544 35.018z" />
<glyph unicode="&#xe905;" glyph-name="smile" d="M512.007 823.475c-207.364 0-375.466-168.102-375.466-375.467 0-207.362 168.102-375.464 375.466-375.464 207.366 0 375.468 168.102 375.468 375.464 0 207.364-168.102 375.467-375.468 375.467zM34.141 448.008c0 263.919 213.948 477.867 477.866 477.867 263.916 0 477.868-213.948 477.868-477.867s-213.952-477.864-477.868-477.864c-263.918 0-477.866 213.946-477.866 477.864zM382.102 393.639c-17.014 22.408-48.955 26.897-71.494 9.993-22.621-16.966-27.206-49.059-10.24-71.68l40.96 30.72c-40.96-30.72-40.948-30.737-40.935-30.753l0.026-0.035 0.057-0.076 0.134-0.176 0.341-0.445 0.979-1.253c0.784-0.99 1.832-2.285 3.139-3.843 2.611-3.111 6.277-7.287 10.961-12.177 9.325-9.728 22.925-22.522 40.518-35.315 34.988-25.446 88.007-52.461 155.448-52.461s120.46 27.014 155.448 52.461c17.594 12.794 31.194 25.587 40.518 35.315 4.685 4.89 8.346 9.066 10.957 12.177 1.312 1.558 2.355 2.853 3.142 3.843l0.979 1.253 0.531 0.697 0.026 0.035c0.013 0.017 0.026 0.033-40.934 30.753l40.96-30.72c16.966 22.621 12.378 54.714-10.24 71.68-22.541 16.904-54.483 12.415-71.494-9.994 0 0 0-0.001 0-0.001-0.026-0.029-0.064-0.077-0.115-0.144-0.205-0.26-0.634-0.797-1.286-1.574-1.307-1.555-3.475-4.043-6.458-7.156-6.008-6.269-15.075-14.813-26.815-23.352-23.679-17.221-55.992-32.874-95.219-32.874s-71.54 15.652-95.219 32.874c-11.741 8.539-20.807 17.082-26.815 23.352-2.983 3.113-5.15 5.601-6.456 7.156-0.651 0.776-1.082 1.314-1.288 1.574-0.053 0.067-0.091 0.115-0.113 0.145-0.001 0-0.001 0.001-0.001 0.001zM641.773 393.494l-0.026-0.042-0.026-0.029zM332.797 575.987c0 28.277 22.923 51.2 51.2 51.2h0.427c28.277 0 51.2-22.923 51.2-51.2s-22.923-51.2-51.2-51.2h-0.427c-28.277 0-51.2 22.924-51.2 51.2zM588.797 575.987c0 28.277 22.923 51.2 51.2 51.2h0.426c28.275 0 51.2-22.923 51.2-51.2s-22.925-51.2-51.2-51.2h-0.426c-28.277 0-51.2 22.924-51.2 51.2z" />
<glyph unicode="&#xe906;" glyph-name="trash" d="M76.797 703.987c0 28.277 22.923 51.2 51.2 51.2h768.003c28.275 0 51.2-22.923 51.2-51.2s-22.925-51.2-51.2-51.2h-768.003c-28.277 0-51.2 22.924-51.2 51.2zM426.674 823.475c-9.053 0-17.734-3.596-24.136-9.997s-9.997-15.084-9.997-24.136v-34.133h238.933v34.133c0 9.053-3.596 17.735-9.997 24.136s-15.083 9.997-24.136 9.997h-170.667zM733.875 755.208h76.8c28.275 0 51.2-22.923 51.2-51.2v-597.333c0-36.211-14.387-70.938-39.994-96.544-25.6-25.606-60.333-39.987-96.544-39.987h-426.664c-36.211 0-70.939 14.381-96.543 39.987s-39.99 60.333-39.99 96.544v597.333c0 28.277 22.923 51.2 51.2 51.2h76.8v34.133c0 36.211 14.385 70.939 39.99 96.544s60.333 39.99 96.543 39.99h170.667c36.211 0 70.941-14.385 96.541-39.99 25.606-25.605 39.994-60.333 39.994-96.544v-34.133zM264.541 652.808v-546.133c0-9.056 3.596-17.734 9.997-24.134s15.083-9.997 24.136-9.997h426.664c9.056 0 17.741 3.597 24.141 9.997s9.997 15.078 9.997 24.134v546.133h-494.934zM426.669 541.875c28.277 0 51.2-22.924 51.2-51.2v-256c0-28.275-22.923-51.2-51.2-51.2s-51.2 22.925-51.2 51.2v256c0 28.276 22.923 51.2 51.2 51.2zM597.341 541.875c28.277 0 51.197-22.924 51.197-51.2v-256c0-28.275-22.92-51.2-51.197-51.2s-51.2 22.925-51.2 51.2v256c0 28.276 22.923 51.2 51.2 51.2z" />
<glyph unicode="&#xe907;" glyph-name="tag" d="M36.4 868.953c0 30.162 24.451 54.613 54.613 54.613h455.111c14.484 0 28.376-5.754 38.618-15.996l391.055-391.056c27.122-27.286 42.353-64.198 42.353-102.673s-15.23-75.386-42.353-102.673l-0.116-0.115-326.291-326.291c-13.526-13.544-29.587-24.282-47.268-31.614s-36.631-11.1-55.77-11.1c-19.139 0-38.089 3.768-55.77 11.1-17.661 7.325-33.707 18.050-47.223 31.567zM443.359-15.285l-390.94 390.487c-10.256 10.243-16.018 24.145-16.018 38.64v455.111zM145.626 814.34v-377.857l374.923-374.483c3.381-3.386 7.44-6.117 11.861-7.953 4.42-1.83 9.157-2.772 13.942-2.772s9.523 0.942 13.943 2.772c4.42 1.836 8.435 4.519 11.817 7.905l326.223 326.222c6.752 6.818 10.588 16.070 10.588 25.668s-3.796 18.808-10.547 25.625v0l-374.873 374.873h-377.876zM263.956 641.397c0 30.162 24.451 54.614 54.613 54.614h0.455c30.162 0 54.613-24.452 54.613-54.614s-24.451-54.613-54.613-54.613h-0.455c-30.162 0-54.613 24.452-54.613 54.613z" />
<glyph unicode="&#xe908;" glyph-name="plus" d="M511.989 914.458c37.703 0 68.267-30.564 68.267-68.267v-329.956h329.952c37.709 0 68.267-30.564 68.267-68.267s-30.558-68.267-68.267-68.267h-329.952v-329.953c0-37.709-30.564-68.267-68.267-68.267s-68.267 30.558-68.267 68.267v329.953h-329.956c-37.702 0-68.266 30.564-68.266 68.267s30.564 68.267 68.266 68.267h329.956v329.956c0 37.702 30.564 68.267 68.267 68.267z" />
<glyph unicode="&#xe909;" glyph-name="calendar" d="M213.33 738.131c-18.851 0-34.133-15.282-34.133-34.133v-597.336c0-18.848 15.282-34.131 34.133-34.131h597.332c18.854 0 34.138 15.283 34.138 34.131v597.336c0 18.851-15.283 34.133-34.138 34.133h-597.332zM76.797 703.998c0 75.405 61.128 136.533 136.533 136.533h597.332c75.405 0 136.538-61.128 136.538-136.533v-597.336c0-75.405-61.133-136.531-136.538-136.531h-597.332c-75.405 0-136.533 61.126-136.533 136.531v597.336zM682.669 925.875c28.275 0 51.2-22.923 51.2-51.2v-170.667c0-28.277-22.925-51.2-51.2-51.2s-51.2 22.923-51.2 51.2v170.667c0 28.277 22.925 51.2 51.2 51.2zM341.341 925.875c28.277 0 51.2-22.923 51.2-51.2v-170.667c0-28.277-22.923-51.2-51.2-51.2s-51.2 22.923-51.2 51.2v170.667c0 28.277 22.923 51.2 51.2 51.2zM76.797 533.331c0 28.277 22.923 51.2 51.2 51.2h768.003c28.275 0 51.2-22.923 51.2-51.2s-22.925-51.2-51.2-51.2h-768.003c-28.277 0-51.2 22.923-51.2 51.2z" />
<glyph unicode="&#xe90a;" glyph-name="refresh-ccw" d="M42.669 840.531c28.277 0 51.2-22.923 51.2-51.2v-204.8h204.8c28.277 0 51.2-22.923 51.2-51.2s-22.923-51.2-51.2-51.2h-256c-28.277 0-51.2 22.923-51.2 51.2v256c0 28.277 22.923 51.2 51.2 51.2zM674.138 362.675c0 28.276 22.925 51.2 51.2 51.2h256c28.282 0 51.2-22.924 51.2-51.2v-256c0-28.275-22.918-51.2-51.2-51.2-28.275 0-51.2 22.925-51.2 51.2v204.8h-204.8c-28.275 0-51.2 22.923-51.2 51.2zM391.315 865.956c70.62 20.428 145.264 22.632 216.966 6.408 71.7-16.224 138.125-50.347 193.076-99.185s96.627-110.8 121.152-180.104c9.434-26.657-4.531-55.914-31.187-65.347s-55.91 4.53-65.344 31.187c-18.758 52.997-50.63 100.38-92.646 137.727-42.022 37.347-92.819 63.441-147.648 75.848-54.832 12.406-111.912 10.72-165.916-4.9s-103.17-44.667-142.912-84.429c-0.378-0.378-0.762-0.751-1.152-1.117l-197.974-186.026c-20.607-19.364-53.009-18.355-72.373 2.252s-18.355 53.009 2.252 72.372l197.407 185.494c51.867 51.696 115.944 89.471 186.3 109.821zM1018.65 397.722c19.36-20.607 18.355-53.010-2.253-72.373l-197.408-185.496c-51.866-51.693-115.942-89.472-186.299-109.818-70.62-20.429-145.264-22.63-216.966-6.413-71.703 16.224-138.127 50.349-193.075 99.187s-96.628 110.803-121.153 180.102c-9.433 26.66 4.53 55.917 31.187 65.35s55.914-4.53 65.347-31.187c18.754-52.998 50.627-100.377 92.646-137.727 42.019-37.344 92.814-63.443 147.645-75.846 54.831-12.41 111.912-10.72 165.916 4.902 54.003 15.616 103.167 44.666 142.911 84.429 0.378 0.378 0.762 0.749 1.152 1.114l197.971 186.028c20.608 19.363 53.011 18.355 72.378-2.252z" />
<glyph unicode="&#xe90b;" glyph-name="check-off-circle" d="M511.992 823.444c-207.364 0-375.467-168.102-375.467-375.467 0-207.363 168.102-375.465 375.467-375.465 207.362 0 375.464 168.102 375.464 375.465 0 207.364-168.102 375.467-375.464 375.467zM34.125 447.977c0 263.919 213.948 477.867 477.867 477.867s477.864-213.948 477.864-477.867c0-263.919-213.946-477.865-477.864-477.865s-477.867 213.946-477.867 477.865z" />
<glyph unicode="&#xe90c;" glyph-name="check-on-circle" d="M512.007 823.475c-207.364 0-375.466-168.102-375.466-375.467 0-207.362 168.102-375.464 375.466-375.464 207.366 0 375.468 168.102 375.468 375.464 0 207.364-168.102 375.467-375.468 375.467zM34.141 448.008c0 263.919 213.948 477.867 477.866 477.867 263.916 0 477.868-213.948 477.868-477.867s-213.952-477.864-477.868-477.864c-263.918 0-477.866 213.946-477.866 477.864zM740.179 590.912c20.013-19.977 20.038-52.395 0.064-72.408l-234.666-235.093c-9.599-9.619-22.627-15.021-36.214-15.027s-26.62 5.389-36.227 14.995l-128 127.999c-19.995 19.995-19.995 52.413 0 72.408s52.413 19.995 72.408 0l91.763-91.763 198.462 198.824c19.974 20.013 52.397 20.042 72.41 0.066z" />
<glyph unicode="&#xe90d;" glyph-name="search" d="M463.234 828.328c-183.127 0-331.581-148.454-331.581-331.581s148.454-331.584 331.581-331.584c183.128 0 331.58 148.457 331.58 331.584s-148.452 331.581-331.58 331.581zM14.625 496.748c0 247.76 200.849 448.61 448.609 448.61s448.609-200.849 448.609-448.61c0-247.76-200.848-448.612-448.609-448.612s-448.609 200.852-448.609 448.612zM697.363 262.619c22.851 22.851 59.9 22.851 82.749 0l212.114-212.114c22.85-22.85 22.85-59.904 0-82.754s-59.897-22.85-82.747 0l-212.117 212.114c-22.851 22.85-22.851 59.902 0 82.753z" />
<glyph unicode="&#xe90e;" glyph-name="checkbox-active" d="M695.916 529.626c17.755 17.789 17.727 46.605-0.063 64.362s-46.603 17.731-64.358-0.059l64.421-64.304zM455.111 352.808l-32.181-32.182c8.54-8.539 20.124-13.335 32.202-13.329s23.658 4.807 32.19 13.358l-32.21 32.154zM373.515 498.765c-17.773 17.773-46.59 17.773-64.363 0s-17.773-46.589 0-64.362l64.363 64.362zM170.667 857.6h682.667v91.022h-682.667v-91.022zM921.6 789.333v-682.667h91.022v682.667h-91.022zM853.333 38.4h-682.667v-91.022h682.667v91.022zM102.4 106.667v682.667h-91.022v-682.667h91.022zM170.667 38.4c-37.703 0-68.267 30.566-68.267 68.267h-91.022c0-87.973 71.316-159.289 159.289-159.289v91.022zM921.6 106.667c0-37.7-30.566-68.267-68.267-68.267v-91.022c87.973 0 159.289 71.316 159.289 159.289h-91.022zM853.333 857.6c37.7 0 68.267-30.564 68.267-68.267h91.022c0 87.973-71.316 159.289-159.289 159.289v-91.022zM170.667 948.622c-87.973 0-159.289-71.316-159.289-159.289h91.022c0 37.703 30.564 68.267 68.267 68.267v91.022zM631.495 593.93l-208.594-208.974 64.421-64.302 208.594 208.972-64.421 64.304zM487.293 384.99l-113.778 113.775-64.363-64.362 113.778-113.777 64.363 64.364z" />
<glyph unicode="&#xe90f;" d="M0 832c0 70.692 57.308 128 128 128h768c70.694 0 128-57.308 128-128v-768c0-70.694-57.306-128-128-128h-768c-70.692 0-128 57.306-128 128v768z" />
<glyph unicode="&#xe910;" glyph-name="alert-circle" d="M512.007 823.475c-207.364 0-375.466-168.102-375.466-375.467 0-207.362 168.102-375.464 375.466-375.464 207.366 0 375.468 168.102 375.468 375.464 0 207.364-168.102 375.467-375.468 375.467zM34.141 448.008c0 263.919 213.948 477.867 477.866 477.867 263.916 0 477.868-213.948 477.868-477.867s-213.952-477.864-477.868-477.864c-263.918 0-477.866 213.946-477.866 477.864zM512 682.656c35.346 0 64-28.653 64-64v-170.666c0-35.347-28.654-64-64-64s-64 28.653-64 64v170.666c0 35.347 28.654 64 64 64zM448 277.344c0 35.347 28.654 64 64 64h0.427c35.346 0 64-28.653 64-64s-28.654-64-64-64h-0.427c-35.346 0-64 28.653-64 64z" />
<glyph unicode="&#xe911;" d="M896 857.6c14.138 0 25.6-11.462 25.6-25.6v-768c0-14.138-11.462-25.6-25.6-25.6h-768c-14.138 0-25.6 11.462-25.6 25.6v768c0 14.138 11.462 25.6 25.6 25.6h768zM128 960c-70.692 0-128-57.308-128-128v-768c0-70.694 57.308-128 128-128h768c70.694 0 128 57.306 128 128v768c0 70.692-57.306 128-128 128h-768z" />
<glyph unicode="&#xe912;" glyph-name="arichive" horiz-adv-x="1317" d="M219.431 701.548c32.317 0 58.514-26.198 58.514-58.514v-575.391h760.684v575.391c0 32.317 26.2 58.514 58.514 58.514 32.322 0 58.514-26.198 58.514-58.514v-633.905c0-32.315-26.192-58.514-58.514-58.514h-877.712c-32.317 0-58.514 26.2-58.514 58.514v633.905c0 32.317 26.198 58.514 58.514 58.514zM63.393 886.843c0 32.317 26.198 58.515 58.514 58.515h1072.764c32.315 0 58.514-26.198 58.514-58.515v-243.809c0-32.317-26.2-58.514-58.514-58.514h-1072.764c-32.317 0-58.514 26.198-58.514 58.514v243.809zM180.421 828.328v-126.781h955.736v126.781h-955.736zM502.25 447.985c0 32.317 26.198 58.514 58.514 58.514h195.050c32.315 0 58.514-26.198 58.514-58.514s-26.2-58.514-58.514-58.514h-195.050c-32.317 0-58.514 26.198-58.514 58.514z" />
<glyph unicode="&#xe913;" glyph-name="dropdown-arrow" horiz-adv-x="1707" d="M74.156 885.844c53.32 53.32 139.767 53.32 193.087 0l586.124-586.122 586.122 586.122c53.32 53.32 139.767 53.32 193.087 0s53.32-139.767 0-193.087l-682.667-682.667c-53.32-53.32-139.767-53.32-193.087 0l-682.667 682.667c-53.32 53.32-53.32 139.768 0 193.087z" />
</font>
</defs>
</svg>
